<svg width="394" height="83" viewBox="0 0 394 83" fill="none" xmlns="http://www.w3.org/2000/svg">
<path d="M153.873 65.229C149.396 65.229 145.277 64.1845 141.517 62.0955C137.801 60.0065 134.846 57.1174 132.653 53.4283C130.459 49.7391 129.362 45.5833 129.362 40.9608C129.362 36.3383 130.459 32.1824 132.653 28.4933C134.846 24.8042 137.801 21.9373 141.517 19.8927C145.277 17.8037 149.396 16.7592 153.873 16.7592C158.349 16.7592 162.446 17.8037 166.161 19.8927C169.877 21.9373 172.81 24.8042 174.958 28.4933C177.152 32.1824 178.249 36.3383 178.249 40.9608C178.249 45.5833 177.152 49.7391 174.958 53.4283C172.81 57.1174 169.855 60.0065 166.094 62.0955C162.379 64.1845 158.305 65.229 153.873 65.229ZM153.873 51.4281C156.827 51.4281 159.11 50.4947 160.722 48.628C162.334 46.7167 163.14 44.161 163.14 40.9608C163.14 37.7161 162.334 35.1604 160.722 33.2936C159.11 31.3824 156.827 30.4268 153.873 30.4268C150.873 30.4268 148.568 31.3824 146.956 33.2936C145.344 35.1604 144.538 37.7161 144.538 40.9608C144.538 44.161 145.344 46.7167 146.956 48.628C148.568 50.4947 150.873 51.4281 153.873 51.4281Z" fill="#4338CA"/>
<path d="M212.368 64.7623L198.535 44.2943V64.7623H183.627V17.5593H198.535V37.4272L212.167 17.5593H229.022L212.637 40.1607L230.096 64.7623H212.368Z" fill="#4338CA"/>
<path d="M229.484 46.1611C229.484 42.4275 230.223 39.1162 231.7 36.2271C233.222 33.3381 235.281 31.1157 237.878 29.56C240.475 28.0044 243.362 27.2266 246.541 27.2266C248.958 27.2266 251.264 27.7599 253.457 28.8267C255.651 29.8489 257.397 31.2268 258.695 32.9603V15.4258H268.231V64.7623H258.695V59.2953C257.531 61.1177 255.897 62.5844 253.793 63.6956C251.689 64.8068 249.249 65.3624 246.473 65.3624C243.34 65.3624 240.475 64.5623 237.878 62.9622C235.281 61.3621 233.222 59.1175 231.7 56.2285C230.223 53.2949 229.484 49.9391 229.484 46.1611ZM258.762 46.2945C258.762 44.0277 258.315 42.0942 257.419 40.4941C256.524 38.8495 255.315 37.605 253.793 36.7605C252.271 35.8716 250.637 35.4271 248.891 35.4271C247.145 35.4271 245.533 35.8493 244.056 36.6938C242.579 37.5383 241.37 38.7829 240.43 40.4274C239.534 42.0275 239.087 43.9388 239.087 46.1611C239.087 48.3835 239.534 50.3392 240.43 52.0282C241.37 53.6727 242.579 54.9395 244.056 55.8284C245.578 56.7174 247.19 57.1618 248.891 57.1618C250.637 57.1618 252.271 56.7396 253.793 55.8951C255.315 55.0061 256.524 53.7616 257.419 52.1615C258.315 50.517 258.762 48.5613 258.762 46.2945Z" fill="#4338CA"/>
<path d="M293.932 65.3624C290.351 65.3624 287.127 64.5846 284.262 63.0289C281.397 61.4288 279.136 59.1842 277.48 56.2951C275.868 53.406 275.062 50.0725 275.062 46.2945C275.062 42.5164 275.891 39.1829 277.547 36.2938C279.248 33.4047 281.554 31.1824 284.464 29.6267C287.374 28.0266 290.619 27.2266 294.201 27.2266C297.782 27.2266 301.028 28.0266 303.938 29.6267C306.848 31.1824 309.131 33.4047 310.787 36.2938C312.489 39.1829 313.339 42.5164 313.339 46.2945C313.339 50.0725 312.466 53.406 310.72 56.2951C309.019 59.1842 306.691 61.4288 303.736 63.0289C300.827 64.5846 297.558 65.3624 293.932 65.3624ZM293.932 57.2285C295.633 57.2285 297.223 56.8285 298.7 56.0284C300.222 55.1839 301.431 53.9394 302.326 52.2949C303.222 50.6503 303.669 48.6502 303.669 46.2945C303.669 42.7831 302.729 40.0941 300.849 38.2273C299.013 36.316 296.753 35.3604 294.067 35.3604C291.38 35.3604 289.12 36.316 287.284 38.2273C285.493 40.0941 284.598 42.7831 284.598 46.2945C284.598 49.8058 285.471 52.5171 287.217 54.4283C289.008 56.2951 291.246 57.2285 293.932 57.2285Z" fill="#4338CA"/>
<path d="M334.472 65.3624C331.427 65.3624 328.697 64.829 326.279 63.7623C323.862 62.6511 321.937 61.1621 320.504 59.2953C319.116 57.4285 318.355 55.3617 318.221 53.0949H327.689C327.868 54.5172 328.562 55.6951 329.771 56.6285C331.025 57.5619 332.569 58.0286 334.405 58.0286C336.195 58.0286 337.583 57.673 338.568 56.9618C339.598 56.2507 340.112 55.3395 340.112 54.2283C340.112 53.0282 339.486 52.1393 338.232 51.5615C337.023 50.9392 335.076 50.2725 332.39 49.5613C329.614 48.8946 327.331 48.2057 325.54 47.4945C323.794 46.7834 322.272 45.6944 320.974 44.2277C319.721 42.7609 319.094 40.783 319.094 38.2939C319.094 36.2494 319.676 34.3826 320.84 32.6936C322.049 31.0046 323.75 29.6712 325.943 28.6933C328.182 27.7155 330.801 27.2266 333.8 27.2266C338.232 27.2266 341.769 28.3377 344.41 30.5601C347.052 32.738 348.507 35.6938 348.775 39.4274H339.777C339.642 37.9606 339.016 36.805 337.896 35.9605C336.822 35.0715 335.367 34.627 333.532 34.627C331.83 34.627 330.51 34.9382 329.57 35.5604C328.674 36.1827 328.227 37.0494 328.227 38.1606C328.227 39.4051 328.853 40.3607 330.107 41.0275C331.36 41.6497 333.308 42.2942 335.949 42.9609C338.635 43.6276 340.851 44.3166 342.597 45.0277C344.343 45.7389 345.843 46.8501 347.096 48.3613C348.395 49.828 349.066 51.7837 349.111 54.2283C349.111 56.3618 348.507 58.273 347.298 59.962C346.134 61.651 344.433 62.9845 342.194 63.9623C340.001 64.8957 337.426 65.3624 334.472 65.3624Z" fill="#4338CA"/>
<path d="M391.412 45.4944C391.412 46.8278 391.322 48.0279 391.143 49.0947H363.946C364.17 51.7615 365.11 53.8505 366.767 55.3617C368.423 56.8729 370.46 57.6285 372.878 57.6285C376.369 57.6285 378.854 56.1396 380.331 53.1616H390.471C389.397 56.7174 387.338 59.6509 384.293 61.9622C381.249 64.229 377.511 65.3624 373.079 65.3624C369.498 65.3624 366.274 64.5846 363.409 63.0289C360.589 61.4288 358.373 59.1842 356.761 56.2951C355.194 53.406 354.411 50.0725 354.411 46.2945C354.411 42.472 355.194 39.1162 356.761 36.2271C358.328 33.3381 360.522 31.1157 363.342 29.56C366.162 28.0044 369.408 27.2266 373.079 27.2266C376.616 27.2266 379.772 27.9822 382.547 29.4934C385.368 31.0046 387.539 33.1603 389.061 35.9605C390.628 38.7162 391.412 41.8942 391.412 45.4944ZM381.674 42.8276C381.63 40.4274 380.757 38.5162 379.056 37.0939C377.354 35.6271 375.273 34.8937 372.81 34.8937C370.482 34.8937 368.513 35.6049 366.901 37.0272C365.334 38.4051 364.372 40.3385 364.013 42.8276H381.674Z" fill="#4338CA"/>
<path d="M79.4198 82.1771C71.8567 82.1771 64.9109 80.4148 58.5825 76.8902C52.2542 73.3656 47.2378 68.5001 43.5334 62.2937C39.829 56.0107 37.9768 48.9232 37.9768 41.0311C37.9768 33.2157 39.829 26.2047 43.5334 19.9983C47.2378 13.7153 52.2542 8.81153 58.5825 5.28691C64.9109 1.7623 71.8567 0 79.4198 0C87.0601 0 94.0059 1.7623 100.257 5.28691C106.585 8.81153 111.563 13.7153 115.19 19.9983C118.895 26.2047 120.747 33.2157 120.747 41.0311C120.747 48.9232 118.895 56.0107 115.19 62.2937C111.563 68.5001 106.585 73.3656 100.257 76.8902C93.9287 80.4148 86.983 82.1771 79.4198 82.1771Z" fill="#4338CA"/>
<path d="M41.443 82.1771C33.8799 82.1771 26.9341 80.4148 20.6057 76.8902C14.2774 73.3656 9.26101 68.5001 5.5566 62.2937C1.8522 56.0107 0 48.9232 0 41.0311C0 33.2157 1.8522 26.2047 5.5566 19.9983C9.26101 13.7153 14.2774 8.81153 20.6057 5.28691C26.9341 1.7623 33.8799 0 41.443 0C49.0833 0 56.0291 1.7623 62.2803 5.28691C68.6086 8.81153 73.5864 13.7153 77.2136 19.9983C80.9181 26.2047 82.7702 33.2157 82.7702 41.0311C82.7702 48.9232 80.9181 56.0107 77.2136 62.2937C73.5864 68.5001 68.6086 73.3656 62.2803 76.8902C55.9519 80.4148 49.0062 82.1771 41.443 82.1771Z" fill="#28C2EC" fill-opacity="0.8"/>
<path d="M48.008 44.9304H73.7536C74.357 44.9304 74.9604 44.7307 75.3627 44.3313C75.7649 43.9319 76.1672 43.1331 76.1672 42.3343C76.1672 41.5355 75.9661 40.7368 75.3627 40.3374C74.9604 39.938 74.5581 39.7383 73.9547 39.7383H47.6057C47.0023 39.938 46.6 39.938 46.1977 40.3374C45.5943 40.7368 45.3932 41.5355 45.3932 42.3343C45.3932 43.1331 45.5943 43.9319 46.1977 44.3313C46.8011 44.7307 47.4046 44.9304 48.008 44.9304Z" fill="white"/>
<path d="M55.8525 33.3484H65.5071C66.1105 33.3484 66.7139 33.1487 67.1162 32.7493C67.5184 32.3499 67.9207 31.5511 67.9207 30.7523C67.9207 29.9535 67.7196 29.1547 67.1162 28.7553C66.7139 28.3559 66.3116 28.1562 65.7082 28.1562H55.4502C54.8468 28.3559 54.4445 28.3559 54.0422 28.7553C53.4388 29.1547 53.2377 29.9535 53.2377 30.7523C53.2377 31.5511 53.4388 32.3499 54.0422 32.7493C54.6456 33.1487 55.249 33.3484 55.8525 33.3484Z" fill="white"/>
<path d="M57.4616 22.3659H63.0934C63.6968 22.3659 64.3003 22.1662 64.7025 21.7668C65.1048 21.3674 65.5071 20.5687 65.5071 19.7699C65.5071 18.9711 65.3059 18.1723 64.7025 17.7729C64.3003 17.3735 63.898 17.1738 63.2946 17.1738H57.0593C56.4559 17.3735 56.0536 17.3735 55.6514 17.7729C55.0479 18.1723 54.8468 18.9711 54.8468 19.7699C54.8468 20.5687 55.0479 21.3674 55.6514 21.7668C56.2548 22.1662 56.8582 22.3659 57.4616 22.3659Z" fill="white"/>
<path d="M65.5067 51.3223H55.8521C55.2487 51.3223 54.6453 51.522 54.243 51.9214C53.8408 52.3207 53.4385 53.1195 53.4385 53.9183C53.4385 54.7171 53.6396 55.5159 54.243 55.9153C54.6453 56.3147 55.0476 56.5144 55.651 56.5144H65.909C66.5124 56.3147 66.9147 56.3147 67.317 55.9153C67.9204 55.5159 68.1215 54.7171 68.1215 53.9183C68.1215 53.1195 67.9204 52.3207 67.317 51.9214C66.7135 51.522 66.1101 51.3223 65.5067 51.3223Z" fill="white"/>
<path d="M63.4956 61.9062H57.8637C57.2603 61.9062 56.6569 62.1059 56.2546 62.5053C55.8523 62.9047 55.4501 63.7035 55.4501 64.5023C55.4501 65.3011 55.6512 66.0999 56.2546 66.4993C56.6569 66.8986 57.0592 67.0983 57.6626 67.0983H63.8978C64.5013 66.8986 64.9035 66.8986 65.3058 66.4993C65.9092 66.0999 66.1104 65.3011 66.1104 64.5023C66.1104 63.7035 65.9092 62.9047 65.3058 62.5053C64.7024 62.1059 64.099 61.9062 63.4956 61.9062Z" fill="white"/>
</svg>
