<svg width="24" height="24" viewBox="0 0 24 24" fill="none" xmlns="http://www.w3.org/2000/svg">
<path d="M12 9.75V13.5" stroke="#DC2626" stroke-width="1.5" stroke-linecap="round" stroke-linejoin="round"/>
<path d="M10.7063 3.75024L2.45634 18.0002C2.32491 18.2279 2.2556 18.4861 2.25537 18.7489C2.25514 19.0118 2.32398 19.2701 2.45501 19.498C2.58604 19.7258 2.77465 19.9153 3.00194 20.0473C3.22923 20.1793 3.48723 20.2493 3.75009 20.2502H20.2501C20.5129 20.2493 20.7709 20.1793 20.9982 20.0473C21.2255 19.9153 21.4141 19.7258 21.5452 19.498C21.6762 19.2701 21.745 19.0118 21.7448 18.7489C21.7446 18.4861 21.6753 18.2279 21.5438 18.0002L13.2938 3.75024C13.1634 3.5223 12.975 3.33287 12.7479 3.20113C12.5207 3.06938 12.2627 3 12.0001 3C11.7375 3 11.4795 3.06938 11.2523 3.20113C11.0251 3.33287 10.8368 3.5223 10.7063 3.75024V3.75024Z" stroke="#DC2626" stroke-width="1.5" stroke-linecap="round" stroke-linejoin="round"/>
<path d="M12 17.8125C12.5178 17.8125 12.9375 17.3928 12.9375 16.875C12.9375 16.3572 12.5178 15.9375 12 15.9375C11.4822 15.9375 11.0625 16.3572 11.0625 16.875C11.0625 17.3928 11.4822 17.8125 12 17.8125Z" fill="#DC2626"/>
</svg>
